:SAMPLES-PER-SECOND 30
:FRAME-RANGE 1-2009
:FULLY-SPECIFIED
:DEGREES
1570
root  29.2578 39.2689 1.71126 -21.3114 -85.8913 19.3163
RightUpLeg  -14.9359 -16.0707 -1.4347
RightLeg  19.6799 -10.6638 -4.39425
RightFoot  -4.08794 -0.126259 1.55273
RightToes  4.71047e-010 1.2921e-014 -6.02303e-014
Spine  9.55599 0.29244 4.02308
Spine1  -2.4846 0.656125 0.0742093
HEad  -3.68029 67.9706 -12.0621
LeftShoulder1  1.56194 -1.171 -27.2971
LeftArm  -0.760579 -39.4467 -24.3288
LeftForeArm  16.5462 -24.0461 -4.2749
LeftHand  -0.264188 0.846226 6.71416
RightShoulder  7.41723 9.64104 49.4332
RightArm  4.76536 -2.76031 12.307
RightForeArm  24.1101 -2.23938 16.2952
RightHand  0.292306 1.04822 5.18263
LeftUpLeg  10.5973 16.3274 11.6619
LeftLeg  14.5637 -5.84187 -2.06716
LeftFoot  -12.3815 -0.0817535 -17.0247
LeftToes  2.15783e-011 -7.56106e-012 -8.20802e-012
1571
root  28.2611 39.2484 1.25981 -15.6456 -85.7417 13.9911
RightUpLeg  -14.1407 -18.0404 -0.740861
RightLeg  20.777 -9.27775 -3.70606
RightFoot  -6.28148 -0.0868121 0.999157
RightToes  4.71047e-010 1.2921e-014 -6.02303e-014
Spine  8.79499 -0.226761 5.032
Spine1  -2.14489 0.174955 1.19529
HEad  -1.57384 67.6346 -9.88424
LeftShoulder1  1.60985 -1.19994 -28.1337
LeftArm  5.23635 -34.7888 -26.0265
LeftForeArm  17.6802 -25.3553 -4.49658
LeftHand  -0.256142 1.15548 6.94682
RightShoulder  7.24491 9.29634 49.5864
RightArm  5.29403 -3.16415 12.217
RightForeArm  24.3098 -4.39443 16.5513
RightHand  0.315283 0.896584 5.74935
LeftUpLeg  8.18555 14.9357 12.7792
LeftLeg  20.453 -5.42598 -1.91148
LeftFoot  -10.2467 0.266362 -21.2836
LeftToes  2.15783e-011 -7.56106e-012 -8.20802e-012
1572
root  27.3167 39.21 0.812151 -6.73512 -85.4324 5.52202
RightUpLeg  -13.1805 -17.775 -0.0810453
RightLeg  21.5591 -10.1414 -3.28
RightFoot  -8.36797 -0.084557 1.07077
RightToes  4.71047e-010 1.2921e-014 -6.02303e-014
Spine  8.34409 -0.488401 6.71106
Spine1  -2.21522 0.132905 1.76897
HEad  -0.0883257 66.5138 -8.10018
LeftShoulder1  1.60005 -1.08809 -28.7676
LeftArm  13.5511 -30.414 -28.6839
LeftForeArm  16.3437 -24.7718 -4.4414
LeftHand  -0.250907 0.870317 6.40262
RightShoulder  6.6245 8.23583 49.4418
RightArm  6.61621 -3.94945 12.3902
RightForeArm  24.1835 -4.83243 16.7306
RightHand  0.353328 0.967245 6.37282
LeftUpLeg  4.10455 11.6435 13.7033
LeftLeg  27.9232 -3.36694 -1.60142
LeftFoot  -5.41141 1.30361 -24.2188
LeftToes  2.15783e-011 -7.56106e-012 -8.20802e-012
1573
root  26.3823 39.1688 0.397017 -1.52655 -85.7791 0.354065
RightUpLeg  -11.8068 -15.331 0.47149
RightLeg  22.2355 -12.2388 -3.56462
RightFoot  -10.2579 -0.0836328 1.49011
RightToes  4.71047e-010 1.2921e-014 -6.02303e-014
Spine  8.51945 -0.376603 8.50574
Spine1  -2.48163 0.607234 1.5757
HEad  0.206311 65.4015 -7.21293
LeftShoulder1  1.53661 -0.876228 -29.0072
LeftArm  22.5269 -25.2663 -31.4237
LeftForeArm  13.996 -23.3432 -4.33844
LeftHand  -0.231677 0.654945 5.65771
RightShoulder  6.18267 7.47029 49.3674
RightArm  9.25711 -5.12705 12.3001
RightForeArm  23.2491 -3.81655 17.0226
RightHand  0.367682 0.957643 6.64609
LeftUpLeg  -0.146757 8.67832 13.9281
LeftLeg  35.9531 -1.6354 -0.920598
LeftFoot  1.99865 2.00885 -17.1733
LeftToes  2.15783e-011 -7.56106e-012 -8.20802e-012
1574
root  25.5201 39.0799 0.0911849 1.28511 -85.3582 -2.53488
RightUpLeg  -10.5191 -13.5968 0.609786
RightLeg  23.2716 -14.189 -3.81247
RightFoot  -12.2238 -0.0673511 2.01043
RightToes  4.71047e-010 1.2921e-014 -6.02303e-014
Spine  8.78707 -0.616078 10.1242
Spine1  -2.57355 0.715206 1.70385
HEad  -0.279318 64.4333 -7.37796
LeftShoulder1  1.51574 -0.744977 -29.609
LeftArm  26.7747 -20.0476 -32.6265
LeftForeArm  15.6334 -19.9693 -6.52466
LeftHand  -0.235799 0.887751 6.03168
RightShoulder  5.97134 7.14735 49.1277
RightArm  13.0218 -6.15854 12.2075
RightForeArm  21.9201 -2.2559 17.3426
RightHand  0.353227 0.943683 6.39731
LeftUpLeg  -4.59573 5.53551 13.6168
LeftLeg  43.3202 -0.613026 -0.23634
LeftFoot  4.82466 1.82792 -13.0333
LeftToes  2.15783e-011 -7.56106e-012 -8.20802e-012
1575
root  24.6051 39.1253 -0.206041 -4.61531 -85.5558 3.36693
RightUpLeg  -8.64396 -11.8496 0.146586
RightLeg  22.9047 -15.5315 -3.59027
RightFoot  -13.5295 -0.0442112 2.48484
RightToes  4.71047e-010 1.2921e-014 -6.02303e-014
Spine  8.86495 -0.497635 10.866
Spine1  -2.60366 1.06739 1.24063
HEad  -0.765143 63.4548 -7.59338
LeftShoulder1  1.49671 -0.61281 -30.3003
LeftArm  24.2033 -14.5524 -31.9282
LeftForeArm  22.0084 -15.2758 -10.7222
LeftHand  -0.23729 1.21479 6.50817
RightShoulder  5.66013 6.62002 48.9961
RightArm  17.857 -6.11612 12.0807
RightForeArm  20.1346 -0.79436 17.6977
RightHand  0.330492 0.910425 6.01568
LeftUpLeg  -8.54884 3.91717 12.452
LeftLeg  48.9654 -0.628979 -0.355925
LeftFoot  3.18618 1.50728 -11.9442
LeftToes  2.15783e-011 -7.56106e-012 -8.20802e-012
1576
root  23.6792 39.1979 -0.483732 -15.1967 -86.4712 14.1659
RightUpLeg  -6.83118 -10.1099 -0.213134
RightLeg  21.8869 -16.1865 -3.21081
RightFoot  -14.4897 -0.0201686 2.83798
RightToes  4.71047e-010 1.2921e-014 -6.02303e-014
Spine  8.95829 -0.0844024 11.6201
Spine1  -2.95838 1.70512 0.167246
HEad  -1.12595 62.74 -7.76152
LeftShoulder1  1.44685 -0.424312 -30.7782
LeftArm  22.9049 -8.45771 -29.9623
LeftForeArm  25.467 -11.4743 -13.5656
LeftHand  -0.236046 1.05277 6.2492
RightShoulder  5.54877 6.49181 48.6481
RightArm  20.1435 -6.17996 12.1451
RightForeArm  19.9407 0.149896 17.7201
RightHand  0.369284 1.19249 6.41202
LeftUpLeg  -12.1812 3.34026 10.8387
LeftLeg  52.3311 -0.70806 -0.537482
LeftFoot  1.92032 1.26641 -10.9696
LeftToes  2.15783e-011 -7.56106e-012 -8.20802e-012
1577
root  22.754 39.2824 -0.755233 -39.9726 -87.6042 39.2608
RightUpLeg  -4.98847 -8.93861 -0.514169
RightLeg  20.3141 -15.9182 -2.62721
RightFoot  -15.1809 -0.00506657 2.91666
RightToes  4.71047e-010 1.2921e-014 -6.02303e-014
Spine  9.12216 0.490171 12.2317
Spine1  -3.41162 2.45548 -1.24193
HEad  -1.83409 62.1832 -8.15541
LeftShoulder1  1.3478 -0.162532 -30.7022
LeftArm  26.1698 -1.97899 -27.4052
LeftForeArm  24.125 -9.95643 -14.8533
LeftHand  -0.209979 1.10318 5.60224
RightShoulder  5.67138 6.8225 48.1251
RightArm  19.2201 -6.52405 12.4473
RightForeArm  20.8025 0.597879 17.4647
RightHand  0.362786 1.1441 6.34928
LeftUpLeg  -15.4439 3.47879 8.97855
LeftLeg  53.4167 -0.545648 -0.331553
LeftFoot  0.472371 1.10159 -10.6532
LeftToes  2.15783e-011 -7.56106e-012 -8.20802e-012
